<svg width="161" height="22" viewBox="0 0 161 22" fill="none" xmlns="http://www.w3.org/2000/svg">
<path d="M3.6 0.699999V21H0.0440002V0.699999H3.6ZM24.5003 21H19.7403L11.1443 4.788V21H7.70025V0.699999H12.4603L21.0563 16.912V0.699999H24.5003V21ZM45.3909 21H40.6309L32.0349 4.788V21H28.5909V0.699999H33.3509L41.9469 16.912V0.699999H45.3909V21ZM52.3375 10.836C52.3375 15.792 54.9975 18.452 58.3575 18.452C61.7175 18.452 64.3775 15.792 64.3775 10.836C64.3775 5.908 61.7175 3.248 58.3575 3.248C54.9975 3.248 52.3375 5.908 52.3375 10.836ZM68.0455 10.836C68.0455 17.08 64.3215 21.364 58.3575 21.364C52.3935 21.364 48.6695 17.08 48.6695 10.836C48.6695 4.564 52.3935 0.335999 58.3575 0.335999C64.3215 0.335999 68.0455 4.564 68.0455 10.836ZM83.5652 21H79.9532L74.8012 4.564V21H71.3292V0.699999H76.8452L81.7732 16.884L86.6732 0.699999H92.1892V21H88.7172V4.564L83.5652 21ZM99.8227 0.699999V21H96.2667V0.699999H99.8227ZM101.599 21L109.075 10.612L102.075 0.699999H106.331L111.203 7.616L116.187 0.699999H120.219L113.219 10.444L120.695 21H116.439L111.063 13.412L105.603 21H101.599ZM126.393 21H122.585V17.192H126.393V21ZM124.247 0.699999H128.111L133.263 16.8L138.275 0.699999H142.027L135.083 21H131.275L124.247 0.699999ZM157.159 14.252H160.575C159.707 18.816 156.515 21.364 151.811 21.364C145.875 21.364 142.431 17.164 142.431 10.78C142.431 4.396 146.071 0.335999 151.979 0.335999C156.487 0.335999 159.707 2.884 160.519 7.448H157.103C156.459 4.676 154.527 3.248 151.867 3.248C148.647 3.248 146.099 5.88 146.099 10.78C146.099 15.708 148.591 18.452 151.839 18.452C154.611 18.452 156.515 17.052 157.159 14.252Z" fill="white"/>
</svg>
