<svg width="77" height="10" viewBox="0 0 77 10" fill="none" xmlns="http://www.w3.org/2000/svg">
<path d="M-0.00399995 9V0.599999H1.94V9H-0.00399995ZM3.9335 9V0.599999H5.5415L10.4975 6.648H9.7175V0.599999H11.6375V9H10.0415L5.0735 2.952H5.8535V9H3.9335ZM13.6249 9V0.599999H15.2329L20.1889 6.648H19.4089V0.599999H21.3289V9H19.7329L14.7649 2.952H15.5449V9H13.6249ZM27.3963 9.144C26.7323 9.144 26.1163 9.036 25.5483 8.82C24.9883 8.604 24.5003 8.3 24.0843 7.908C23.6763 7.516 23.3563 7.056 23.1243 6.528C22.9003 6 22.7883 5.424 22.7883 4.8C22.7883 4.176 22.9003 3.6 23.1243 3.072C23.3563 2.544 23.6803 2.084 24.0963 1.692C24.5123 1.3 25.0003 0.995999 25.5603 0.779999C26.1203 0.564 26.7283 0.456 27.3843 0.456C28.0483 0.456 28.6563 0.564 29.2083 0.779999C29.7683 0.995999 30.2523 1.3 30.6603 1.692C31.0763 2.084 31.4003 2.544 31.6323 3.072C31.8643 3.592 31.9803 4.168 31.9803 4.8C31.9803 5.424 31.8643 6.004 31.6323 6.54C31.4003 7.068 31.0763 7.528 30.6603 7.92C30.2523 8.304 29.7683 8.604 29.2083 8.82C28.6563 9.036 28.0523 9.144 27.3963 9.144ZM27.3843 7.488C27.7603 7.488 28.1043 7.424 28.4163 7.296C28.7363 7.168 29.0163 6.984 29.2563 6.744C29.4963 6.504 29.6803 6.22 29.8083 5.892C29.9443 5.564 30.0123 5.2 30.0123 4.8C30.0123 4.4 29.9443 4.036 29.8083 3.708C29.6803 3.38 29.4963 3.096 29.2563 2.856C29.0243 2.616 28.7483 2.432 28.4283 2.304C28.1083 2.176 27.7603 2.112 27.3843 2.112C27.0083 2.112 26.6603 2.176 26.3403 2.304C26.0283 2.432 25.7523 2.616 25.5123 2.856C25.2723 3.096 25.0843 3.38 24.9483 3.708C24.8203 4.036 24.7563 4.4 24.7563 4.8C24.7563 5.192 24.8203 5.556 24.9483 5.892C25.0843 6.22 25.2683 6.504 25.5003 6.744C25.7403 6.984 26.0203 7.168 26.3403 7.296C26.6603 7.424 27.0083 7.488 27.3843 7.488ZM33.4413 9V0.599999H35.0493L38.6253 6.528H37.7733L41.2893 0.599999H42.8853L42.9093 9H41.0853L41.0733 3.396H41.4093L38.6013 8.112H37.7253L34.8573 3.396H35.2653V9H33.4413ZM44.9023 9V0.599999H46.8463V9H44.9023ZM47.8798 9L51.4918 4.02V5.436L48.0358 0.599999H50.2438L52.6318 3.972L51.7078 3.984L54.0598 0.599999H56.1718L52.7398 5.352V3.96L56.3758 9H54.1318L51.6598 5.436H52.5478L50.1118 9H47.8798Z" fill="white"/>
<path d="M57.9822 9.096C57.6622 9.096 57.3862 8.988 57.1542 8.772C56.9302 8.548 56.8182 8.264 56.8182 7.92C56.8182 7.576 56.9302 7.3 57.1542 7.092C57.3862 6.876 57.6622 6.768 57.9822 6.768C58.3102 6.768 58.5862 6.876 58.8102 7.092C59.0342 7.3 59.1462 7.576 59.1462 7.92C59.1462 8.264 59.0342 8.548 58.8102 8.772C58.5862 8.988 58.3102 9.096 57.9822 9.096ZM62.6098 9L58.9857 0.599999H61.0858L64.2538 8.04H63.0178L66.2338 0.599999H68.1658L64.5298 9H62.6098ZM72.7933 9.144C72.1453 9.144 71.5413 9.04 70.9813 8.832C70.4293 8.616 69.9493 8.312 69.5413 7.92C69.1333 7.528 68.8133 7.068 68.5813 6.54C68.3573 6.012 68.2453 5.432 68.2453 4.8C68.2453 4.168 68.3573 3.588 68.5813 3.06C68.8133 2.532 69.1333 2.072 69.5413 1.68C69.9573 1.288 70.4413 0.987999 70.9933 0.779999C71.5453 0.564 72.1493 0.456 72.8053 0.456C73.5333 0.456 74.1893 0.584 74.7733 0.84C75.3653 1.088 75.8613 1.456 76.2613 1.944L75.0133 3.096C74.7253 2.768 74.4053 2.524 74.0533 2.364C73.7013 2.196 73.3173 2.112 72.9013 2.112C72.5093 2.112 72.1493 2.176 71.8213 2.304C71.4933 2.432 71.2093 2.616 70.9693 2.856C70.7293 3.096 70.5413 3.38 70.4053 3.708C70.2773 4.036 70.2133 4.4 70.2133 4.8C70.2133 5.2 70.2773 5.564 70.4053 5.892C70.5413 6.22 70.7293 6.504 70.9693 6.744C71.2093 6.984 71.4933 7.168 71.8213 7.296C72.1493 7.424 72.5093 7.488 72.9013 7.488C73.3173 7.488 73.7013 7.408 74.0533 7.248C74.4053 7.08 74.7253 6.828 75.0133 6.492L76.2613 7.644C75.8613 8.132 75.3653 8.504 74.7733 8.76C74.1893 9.016 73.5293 9.144 72.7933 9.144Z" fill="#1178B2"/>
</svg>
