<?xml version="1.0" encoding="utf-8"?><svg viewBox="0 0 800 800" xmlns="http://www.w3.org/2000/svg" xmlns:xlink="http://www.w3.org/1999/xlink"><style>:root>svg{display:none}:root>svg:target{display:block}</style><svg viewBox="0 0 24 24" id="email-icon" xmlns="http://www.w3.org/2000/svg"><path fill-rule="evenodd" clip-rule="evenodd" d="M3.75 5.25L3 6v12l.75.75h16.5L21 18V6l-.75-.75H3.75zm.75 2.446v9.554h15V7.695L12 14.514 4.5 7.696zm13.81-.946H5.69L12 12.486l6.31-5.736z"/></svg><svg viewBox="0 0 512 512" id="facebook-icon" xmlns="http://www.w3.org/2000/svg"><path d="M283.122 122.174v46.583h83.424l-9.045 74.367h-74.379v268.375h-98.726V243.124h-51.443v-74.367h51.443v-56.302c0-27.82-2.096-41.02 9.725-62.578C205.948 28.32 239.308-.174 297.007.512c57.713.711 82.04 6.263 82.04 6.263l-12.501 79.257s-36.853-9.731-54.942-6.263c-18.065 3.469-28.482 14.597-28.482 42.405z"/></svg><svg viewBox="0 0 502.664 502.664" id="icon" xmlns="http://www.w3.org/2000/svg"><path d="M153.821 358.226L0 274.337v-46.463l153.821-83.414v54.574L46.636 250.523l107.185 53.431v54.272zm26.273 29.358L282.103 115.08h32.227L212.084 387.584h-31.99zm168.749-29.358v-54.272l107.164-52.999-107.164-52.59v-53.927l153.821 83.522v46.183l-153.821 84.083z"/></svg><svg viewBox="0 0 24 24" id="telegram-icon" xmlns="http://www.w3.org/2000/svg"><path fill-rule="evenodd" clip-rule="evenodd" d="M23.112 4.494c.318-1.55-1.205-2.837-2.68-2.267L2.342 9.216c-1.647.637-1.72 2.941-.117 3.682l3.94 1.818 1.873 6.559a1 1 0 001.67.432l2.886-2.887 4.043 3.033a2 2 0 003.16-1.198l3.315-16.16zM3.063 11.082l18.09-6.99-3.316 16.161L13.1 16.7a1 1 0 00-1.307.093l-1.236 1.236.371-2.043 7.28-7.279a1 1 0 00-1.204-1.575L6.95 12.876l-3.888-1.794zm5.114 3.397l.606 2.123.233-1.281a1 1 0 01.277-.528l2.22-2.22-3.336 1.906z"/></svg><svg viewBox="0 0 24 24" id="whatsapp-icon" xmlns="http://www.w3.org/2000/svg"><path d="M6.014 8.006c.114-.904 1.289-2.132 2.22-1.996.907.172 1.625 1.734 2.03 2.436.286.509.1 1.025-.167 1.243-.361.29-.926.692-.808 1.095C9.5 11.5 12 14 13.23 14.711c.466.269.804-.44 1.092-.804.21-.28.726-.447 1.234-.171.759.442 1.474.956 2.135 1.534.33.276.408.684.179 1.115-.403.76-1.569 1.76-2.415 1.557C13.976 17.587 8 15.27 6.08 8.558c-.108-.318-.08-.438-.066-.552z"/><path fill-rule="evenodd" clip-rule="evenodd" d="M12 23c-1.224 0-1.9-.131-3-.5l-2.106 1.053A2 2 0 014 21.763V19.5c-2.153-2.008-3-4.323-3-7.5C1 5.925 5.925 1 12 1s11 4.925 11 11-4.925 11-11 11zm-6-4.37l-.636-.593C3.691 16.477 3 14.733 3 12a9 9 0 119 9c-.986 0-1.448-.089-2.364-.396l-.788-.264L6 21.764V18.63z"/></svg></svg>